<svg version="1.0" width="320pt" height="336" viewBox="0 0 320 252" preserveAspectRatio="xMidYMid" xmlns="http://www.w3.org/2000/svg"><g fill="#fff"><path d="M105.3 11.367c-.3.9.2 2.4 1.1 3.4s1.6 2.6 1.6 3.5c0 1 .6 3 1.4 4.4 1.8 3.5 4 8.6 6.1 14.2 1 2.5 2.4 6 3.1 7.7 4.8 11.3 5.1 12 12.1 29.3 3 7.4 5.8 13.9 6.4 14.4.5.6.9 1.9.9 2.9s.6 3.1 1.4 4.5c.8 1.5 3.1 6.7 5.1 11.7 5.1 12.7 5.5 13.7 7.1 16.8.8 1.6 1.4 3.5 1.4 4.2s1.4 4 3 7.3c1.7 3.4 3 6.5 3 7.1 0 .5 1.4 4 3 7.7 1.7 3.7 2.8 7.4 2.6 8.1-.4 1-7.5 1.3-35.6 1.3-21 0-35-.4-35-.9 0-.9 3-8.4 6.5-16.6.7-1.7 2.8-6.6 4.5-11 1.8-4.4 4-9.8 5-12s3.5-8.2 5.5-13.2l3.7-9.3-1.8-4.5c-.9-2.5-2.1-4.8-2.5-5.1-.5-.3-.9-1.4-.9-2.5s-1.3-4.5-3-7.6c-1.6-3.1-3-6.1-3-6.8s-1.3-4-3-7.3c-1.6-3.4-3-6.6-3-7.1 0-.6-1.3-3.9-2.9-7.3-1.6-3.5-3.1-7.2-3.3-8.3s-1-2-1.8-2c-1.6 0-2.5 1.7-7 13-1.8 4.4-3.8 9.3-4.5 11-.7 1.6-2.1 5-3 7.5-1 2.5-2.3 5.8-3 7.5-2.9 6.8-3.5 8.2-5.6 13.5-3.8 9.6-5 12.4-6.5 15.2-.7 1.4-1.4 3.5-1.4 4.5s-.4 2.3-.9 2.8c-.5.6-1.9 3.5-3.1 6.5s-4.2 10.4-6.7 16.5c-2.5 6-5.9 14.4-7.5 18.5s-3.6 8.7-4.4 10.2c-.8 1.4-1.4 3.5-1.4 4.5s-.4 2.3-.9 2.9c-.5.5-1.9 3.4-3.1 6.4-6.7 16.7-8.4 20.8-9.5 23.5-.7 1.6-2.8 6.6-4.5 11-3 7.7-4.5 11.2-6.8 16.5-2.6 5.9-4.2 10.3-4.2 11.6 0 1.2 4.3 1.4 24.3 1.4h24.4l2.3-5.3c1.3-2.8 3.6-8 5.2-11.5 1.5-3.4 2.8-6.6 2.8-7.1s.6-2.2 1.4-3.8c.8-1.5 2.3-4.8 3.2-7.3 1-2.5 2.3-4.8 2.9-5.2.5-.4 24.5-.8 53.1-.8h52.2l1.5 2.3c.8 1.2 4 8.3 7.2 15.7 5.9 13.7 6.2 14.4 8.6 19.5l1.5 3h23.9c23 0 24-.1 24.4-2 .2-1-.4-3.5-1.4-5.5-2.2-4.6-3.6-7.8-7.5-17.5-1.7-4.4-3.8-9.3-4.6-10.8-.8-1.6-1.4-3.3-1.4-3.8s-1.3-3.7-2.8-7.1c-1.6-3.5-3.6-8.1-4.4-10.3-4.3-10.9-8.3-20.6-10.9-26.2-1.6-3.5-2.9-6.7-2.9-7.1 0-.8-2.6-7.2-7.5-18.7-.8-1.7-2.8-6.6-4.5-11s-3.8-9.6-4.7-11.5c-3-6.9-4.1-9.6-5.8-14-2-5.4-3.6-9.3-5.7-14-.9-1.9-3-7.1-4.8-11.5-1.7-4.4-3.6-8.8-4.1-9.8-.5-.9-1.6-3.8-2.5-6.3-1.3-3.9-1.3-4.8-.2-5.5.7-.5 31.9-.8 69.2-.8 37.4 0 68.3-.4 68.8-.9s.7-9.1.6-19.3l-.3-18.4-102.8-.3c-91.8-.2-102.8 0-103.4 1.3"/><path d="M215.7 107.067c-.8.5-.2 2.8 1.7 7.5 1.6 3.7 3.5 8.6 4.3 10.7.8 2.2 2.5 6.3 3.9 9.1 1.3 2.9 2.4 5.7 2.4 6.3s.9 3 2.1 5.2l2.1 4h25.3c14.8 0 25.6-.4 26-.9.7-1.2 1.2-40.8.5-41.5-.8-.8-67-1.2-68.3-.4"/></g></svg>
